<svg width="76" height="85" viewBox="0 0 76 85" fill="none" xmlns="http://www.w3.org/2000/svg"
    class="css-1w5ppwh">
    <path
        d="M19.425 2.29C17.111 8.31 13.803 13.892 2.09 14.94L.832 23.316h10.234L1.802 85.087h14.556L28.777 2.289h-9.352zM57.493.719c-12.969 0-21.655 7.329-23.697 20.94l-6.36 42.401c-2.04 13.611 4.346 21.027 17.403 21.027 13.057 0 21.845-7.416 23.886-21.027l6.36-42.402C77.126 8.048 70.55.718 57.493.718zM53.91 65.195c-.824 5.496-3.824 7.852-7.265 7.852-3.353 0-5.545-2.443-4.733-7.852l6.7-44.671c.811-5.41 3.9-7.765 7.163-7.765 3.441 0 5.646 2.356 4.835 7.765l-6.7 44.67z"
        fill="#fff"></path>
</svg>