<svg width="76" height="84" viewBox="0 0 76 84" fill="none" xmlns="http://www.w3.org/2000/svg"
    class="css-9zqyhh">
    <path
        d="M19.423 1.205C17.108 7.225 13.8 12.81 2.085 13.856L.83 22.232h10.235L1.798 84.003h14.558l12.42-82.798h-9.353zM68.034 73.003H41.212c1.99-13.262 29.99-28.181 33-48.248l1.074-7.154C76.79 7.567 69.972.675 58.237.675c-14.204 0-22.895 7.94-24.57 19.107L31.9 31.56H45.93l1.701-11.342c.746-4.973 3.949-7.503 7.743-7.503 3.352 0 5.712 1.92 4.913 7.241l-1.1 7.33C56.977 42.03 27.574 52.76 23.426 80.418l-.537 3.577h43.497l1.65-10.993z"
        fill="#fff"></path>
</svg>