<svg width="74" height="85" viewBox="0 0 74 85" fill="none" xmlns="http://www.w3.org/2000/svg"
    class="css-wwi1na">
    <path
        d="M18.611 2.199c-2.314 6.02-5.622 11.604-17.337 12.65L.018 23.226h10.234L.987 84.996h14.557l12.42-82.797H18.61zM60.318 40.675l.105-.697c7.398-2.269 10.562-6.893 11.674-14.309l1.191-7.94C74.885 7.086 67.887.805 56.505.805c-13.851 0-22.032 6.892-23.85 19.02l-1.663 11.08h13.764l1.636-10.906c.693-4.624 3.72-7.154 7.249-7.154 3.529 0 5.43 2.617 4.802 6.805L57.2 27.937c-.694 4.625-1.884 7.853-7.883 7.853h-9.97l.292 10.993h8.558c4.5 0 6.67 2.006 5.78 7.94l-1.519 10.12c-.837 5.584-3.7 8.201-7.406 8.201-3.529 0-6.087-2.356-5.367-7.154l2.12-14.134H27.776L25.63 66.064c-1.819 12.128 4.836 18.933 17.806 18.933s21.679-6.893 23.524-19.195l1.479-9.858c1.387-9.248-1.03-14.309-8.12-15.269z"
        fill="#fff"></path>
</svg>