<svg width="78" height="83" viewBox="0 0 78 83" fill="none" xmlns="http://www.w3.org/2000/svg"
    class="css-1rds8g1">
    <path
        d="M19.248.206c-2.314 6.02-5.622 11.604-17.336 12.651L.655 21.234H10.89L1.624 83.007h14.558L28.6.206h-9.352zM72.177.548h-14.38C53.87 26.724 37.278 41.469 25.555 53.16l-1.53 10.209h28.672l-2.944 19.632H64.31l2.945-19.632h8.47l1.635-10.907h-8.47l3.887-25.914h-4.058c-2.36 7.504-7.257 15.444-13.457 19.72l-.929 6.194H43.834l-.209-.96C57.201 39.813 68.856 24.456 72.177.549z"
        fill="#fff"></path>
</svg>