<svg width="76" height="84" viewBox="0 0 76 84" fill="none" xmlns="http://www.w3.org/2000/svg"
    class="css-1yioeve">
    <path
        d="M18.936 1.204c-2.314 6.02-5.622 11.604-17.338 12.65L.342 22.23h10.235L1.31 83.998h14.558L28.29 1.204h-9.353zM45.302 38.112h-.794l5.818-26.434h21.705L75.004.685H38.829L29.475 44.22l13.407 2.967c1.262-2.53 3.288-4.275 6.641-4.275 3.53 0 5.523 2.006 4.907 6.107l-2.538 16.925c-.616 4.1-3.564 6.107-7.005 6.107-3.705 0-6.113-2.181-5.367-7.154l2.015-13.435H27.506l-1.753 11.69c-2.108 14.046 4.46 20.851 17.253 20.851 13.147 0 21.857-6.892 23.872-20.327l2.408-16.053c1.65-10.993-3.15-16.053-10.562-16.053-5.646 0-10.375 2.705-13.422 6.543z"
        fill="#fff"></path>
</svg>