<svg width="75" height="85" viewBox="0 0 75 85" fill="none" xmlns="http://www.w3.org/2000/svg"
    class="css-yhws13">
    <path
        d="M18.931 2.199c-2.315 6.02-5.622 11.604-17.337 12.65L.338 23.226h10.234L1.307 84.996h14.557L28.283 2.2H18.93zM45.524 42.333h-.706l3.52-23.47c.51-3.402 3.02-6.02 6.902-6.02 3.53 0 5.686 2.095 4.927 7.155l-1.531 10.208h13.939l1.544-10.295C75.951 7.696 69.84.804 56.694.804c-12.087 0-21.215 7.328-23.256 20.939l-6.36 42.402c-2.094 13.96 4.46 20.852 17.429 20.852 12.969 0 21.845-7.416 23.781-20.329l1.937-12.912c1.636-10.906-3.954-16.577-11.188-16.577-6.176 0-10.022 2.705-13.513 7.154zm7.69 24.604c-.523 3.49-3.474 6.107-6.826 6.107-3.794 0-5.849-2.181-5.103-7.154l1.898-12.651c.615-4.1 3.49-6.805 6.931-6.805 3.617 0 5.77 2.704 5.155 6.805l-2.054 13.698z"
        fill="#fff"></path>
</svg>