<svg width="75" height="85" viewBox="0 0 75 85" fill="none" xmlns="http://www.w3.org/2000/svg"
    class="css-1kzhkew">
    <path
        d="M19.252 2.199c-2.315 6.02-5.623 11.604-17.337 12.65L.658 23.226h10.235L1.628 84.996h14.557L28.604 2.2h-9.352zM39.78 40.414l-.105.698c-6.6 1.657-11.205 7.067-12.41 15.093l-1.557 10.383c-1.819 12.127 5.62 18.409 18.502 18.409 12.88 0 22.116-6.282 23.935-18.41l1.557-10.382c1.309-8.724-1.765-13.523-8.058-15.093l.091-.611c6.68-2.181 10.514-7.154 11.613-14.483l1.243-8.288C76.057 7.958 69.895.804 56.838.804c-13.058 0-21.365 7.154-22.83 16.926l-1.244 8.288c-1.086 7.242 1.167 12.215 7.016 14.396zm18.807-11.866c-.64 4.275-2.85 7.242-6.997 7.242-3.97 0-5.554-2.967-4.913-7.242l1.295-8.637c.629-4.188 3.015-7.155 7.073-7.155 4.147 0 5.466 2.967 4.838 7.155l-1.296 8.637zM53.67 65.454c-.667 4.45-3.167 7.59-7.667 7.59-4.235 0-6.057-3.14-5.39-7.59l1.806-12.04c.68-4.537 3.432-7.591 7.667-7.591 4.5 0 6.07 3.054 5.39 7.59l-1.806 12.04z"
        fill="#fff"></path>
</svg>