<svg width="76" height="85" viewBox="0 0 76 85" fill="none" xmlns="http://www.w3.org/2000/svg"
    class="css-1kcoe9a">
    <path
        d="M19.25 2.199c-2.314 6.02-5.621 11.604-17.335 12.65L.659 23.226h10.233L1.628 84.996h14.556L28.602 2.199h-9.351zM56.276 43.467h.706l-3.52 23.47c-.51 3.402-3.02 6.02-6.902 6.02-3.528 0-5.684-2.094-4.926-7.154l1.531-10.208H29.227L27.683 65.89c-1.832 12.214 4.28 19.107 17.425 19.107 12.086 0 21.213-7.329 23.254-20.94l6.36-42.401C76.815 7.696 70.262.804 57.294.804S35.45 8.22 33.514 21.132l-1.938 12.913C29.941 44.95 35.53 50.622 42.764 50.622c6.176 0 10.022-2.705 13.512-7.155zm-7.69-24.603c.524-3.49 3.475-6.107 6.827-6.107 3.793 0 5.848 2.18 5.102 7.154l-1.897 12.65c-.615 4.101-3.49 6.806-6.931 6.806-3.617 0-5.77-2.705-5.155-6.805l2.054-13.698z"
        fill="#fff"></path>
</svg>