<svg width="99" height="85" viewBox="0 0 99 85" fill="none" xmlns="http://www.w3.org/2000/svg"
    class="css-1yb5lze">
    <path
        d="M45.205 74.009h-26.82c1.989-13.262 29.988-28.18 32.998-48.248l1.073-7.154C53.96 8.573 47.143 1.68 35.409 1.68c-14.204 0-22.894 7.94-24.57 19.107L9.074 32.566h14.028l1.701-11.342c.746-4.973 3.949-7.503 7.742-7.503 3.353 0 5.712 1.92 4.913 7.242l-1.099 7.328C34.147 43.036 4.746 53.768.598 81.425l-.536 3.577h43.494l1.649-10.993zM80.453.517c-12.97 0-21.656 7.329-23.697 20.94l-6.36 42.401C48.355 77.47 54.741 84.886 67.8 84.886c13.057 0 21.844-7.416 23.886-21.027l6.36-42.402C100.086 7.846 93.51.517 80.453.517zM76.87 64.993c-.825 5.496-3.825 7.852-7.266 7.852-3.352 0-5.544-2.443-4.733-7.852l6.7-44.67c.811-5.41 3.9-7.766 7.164-7.766 3.44 0 5.646 2.356 4.835 7.765l-6.7 44.67z"
        fill="#fff"></path>
</svg>