<svg width="49" height="85" viewBox="0 0 49 85" fill="none" xmlns="http://www.w3.org/2000/svg"
    class="css-1pkr4dc">
    <path
        d="M35.115 40.675l.105-.697c7.397-2.269 10.561-6.893 11.673-14.309l1.191-7.94C49.68 7.086 42.683.805 31.303.805c-13.85 0-22.03 6.892-23.849 19.02l-1.661 11.08h13.762l1.635-10.906c.694-4.624 3.72-7.154 7.248-7.154 3.53 0 5.43 2.617 4.802 6.805l-1.243 8.288c-.693 4.625-1.883 7.853-7.882 7.853h-9.969l.292 10.993h8.557c4.5 0 6.669 2.006 5.779 7.94l-1.518 10.12c-.837 5.584-3.7 8.201-7.405 8.201-3.529 0-6.087-2.356-5.367-7.154l2.12-14.134H2.577L.431 66.064c-1.819 12.128 4.836 18.933 17.804 18.933 12.968 0 21.676-6.893 23.521-19.195l1.479-9.858c1.387-9.248-1.03-14.309-8.12-15.269z"
        fill="#fff"></path>
</svg>