<svg width="50" height="84" viewBox="0 0 50 84" fill="none" xmlns="http://www.w3.org/2000/svg"
    class="css-14z87yo">
    <path
        d="M19.98 38.102h-.794l5.818-26.435H46.71L49.682.675H13.507L4.153 44.209l13.407 2.966c1.262-2.53 3.288-4.275 6.641-4.275 3.53 0 5.523 2.007 4.907 6.107L26.57 65.932c-.616 4.1-3.564 6.107-7.005 6.107-3.705 0-6.113-2.18-5.367-7.154l2.015-13.435H2.184L.43 63.14c-2.107 14.047 4.46 20.852 17.254 20.852 13.147 0 21.857-6.893 23.872-20.328l2.408-16.053c1.65-10.992-3.15-16.052-10.562-16.052-5.646 0-10.376 2.704-13.422 6.543z"
        fill="#fff"></path>
</svg>