<svg width="49" height="85" viewBox="0 0 49 85" fill="none" xmlns="http://www.w3.org/2000/svg"
    class="css-1bhk0kg">
    <path
        d="M19.26 42.333h-.705l3.52-23.47c.51-3.402 3.02-6.02 6.902-6.02 3.528 0 5.684 2.095 4.926 7.155l-1.531 10.208H46.31l1.544-10.295C49.686 7.696 43.574.804 30.43.804 18.344.804 9.217 8.132 7.175 21.743L.816 64.145c-2.093 13.96 4.46 20.852 17.428 20.852s21.843-7.416 23.78-20.329l1.936-12.912c1.636-10.906-3.954-16.577-11.188-16.577-6.175 0-10.02 2.705-13.511 7.154zm7.691 24.604c-.523 3.49-3.474 6.107-6.827 6.107-3.793 0-5.848-2.181-5.102-7.154l1.897-12.651c.616-4.1 3.491-6.805 6.932-6.805 3.617 0 5.77 2.704 5.154 6.805l-2.054 13.698z"
        fill="#fff"></path>
</svg>