<svg width="51" height="85" viewBox="0 0 51 85" fill="none" xmlns="http://www.w3.org/2000/svg"
    class="css-1095gm9">
    <path
        d="M15.32 40.414l-.104.698C8.615 42.769 4.01 48.179 2.806 56.205L1.247 66.588c-1.82 12.127 5.62 18.409 18.503 18.409 12.882 0 22.118-6.282 23.937-18.41l1.557-10.382c1.31-8.724-1.765-13.523-8.059-15.093l.092-.611c6.68-2.181 10.514-7.154 11.613-14.483l1.244-8.288C51.6 7.958 45.438.804 32.38.804 19.32.804 11.013 7.958 9.547 17.73l-1.243 8.288c-1.086 7.242 1.168 12.215 7.017 14.396zm18.81-11.866c-.642 4.275-2.851 7.242-6.998 7.242-3.97 0-5.555-2.967-4.914-7.242l1.296-8.637c.628-4.188 3.014-7.155 7.073-7.155 4.147 0 5.467 2.967 4.838 7.155l-1.295 8.637zM29.21 65.454c-.667 4.45-3.167 7.59-7.667 7.59-4.236 0-6.059-3.14-5.391-7.59l1.806-12.04c.68-4.537 3.433-7.591 7.668-7.591 4.5 0 6.071 3.054 5.39 7.59l-1.806 12.04z"
        fill="#fff"></path>
</svg>