<svg width="49" height="85" viewBox="0 0 49 85" fill="none" xmlns="http://www.w3.org/2000/svg"
    class="css-15xyjr8">
    <path
        d="M29.732 43.467h.706l-3.52 23.47c-.51 3.402-3.02 6.02-6.901 6.02-3.53 0-5.685-2.094-4.926-7.154l1.53-10.208H2.684L1.14 65.89C-.693 78.104 5.42 84.997 18.564 84.997c12.085 0 21.212-7.329 23.254-20.94l6.36-42.401C50.27 7.696 43.717.804 30.75.804S8.906 8.22 6.97 21.132L5.033 34.045C3.397 44.95 8.987 50.622 16.221 50.622c6.175 0 10.021-2.705 13.511-7.155zm-7.69-24.603c.524-3.49 3.475-6.107 6.827-6.107 3.793 0 5.848 2.18 5.102 7.154l-1.897 12.65c-.615 4.101-3.491 6.806-6.931 6.806-3.617 0-5.77-2.705-5.155-6.805l2.054-13.698z"
        fill="#fff"></path>
</svg>